<mxfile host="app.diagrams.net" agent="Mozilla/5.0 (Windows NT 10.0; Win64; x64) AppleWebKit/537.36 (KHTML, like Gecko) Chrome/135.0.0.0 Safari/537.36 OPR/120.0.0.0" version="28.1.2">
  <diagram name="Page-1" id="u_Z78-zBwKize9A98fTc">
    <mxGraphModel dx="1582" dy="791" grid="1" gridSize="10" guides="1" tooltips="1" connect="1" arrows="1" fold="1" page="1" pageScale="1" pageWidth="4681" pageHeight="3300" math="0" shadow="0">
      <root>
        <mxCell id="0" />
        <mxCell id="1" parent="0" />
        <mxCell id="8F5OMPCy04fyyseZWVCi-2" value="" style="html=1;whiteSpace=wrap;fontSize=18;" parent="1" vertex="1">
          <mxGeometry x="410" y="10" width="590" height="570" as="geometry" />
        </mxCell>
        <mxCell id="8F5OMPCy04fyyseZWVCi-3" value="&lt;span style=&quot;text-align: left;&quot;&gt;&lt;font&gt;&lt;span&gt;Medical Prescription Management System&lt;/span&gt;&lt;/font&gt;&lt;/span&gt;" style="text;html=1;align=center;verticalAlign=middle;whiteSpace=wrap;rounded=0;fontSize=18;fontStyle=1" parent="1" vertex="1">
          <mxGeometry x="490" y="30" width="440" height="30" as="geometry" />
        </mxCell>
        <mxCell id="8F5OMPCy04fyyseZWVCi-4" value="&lt;span style=&quot;text-align: left; text-wrap-mode: wrap;&quot;&gt;Doctor&lt;/span&gt;" style="shape=umlActor;verticalLabelPosition=bottom;verticalAlign=top;html=1;outlineConnect=0;fillColor=#d5e8d4;strokeColor=#82b366;fontSize=18;fontStyle=1" parent="1" vertex="1">
          <mxGeometry x="325" y="120" width="30" height="60" as="geometry" />
        </mxCell>
        <mxCell id="8F5OMPCy04fyyseZWVCi-5" value="&lt;span style=&quot;text-align: left; text-wrap-mode: wrap;&quot;&gt;&lt;b&gt;Pharmacist&lt;/b&gt;&lt;/span&gt;" style="shape=umlActor;verticalLabelPosition=bottom;verticalAlign=top;html=1;outlineConnect=0;fillColor=#f8cecc;strokeColor=#b85450;fontSize=18;" parent="1" vertex="1">
          <mxGeometry x="325" y="240" width="30" height="60" as="geometry" />
        </mxCell>
        <mxCell id="8F5OMPCy04fyyseZWVCi-6" value="&lt;b&gt;Patient&lt;/b&gt;" style="shape=umlActor;verticalLabelPosition=bottom;verticalAlign=top;html=1;outlineConnect=0;fillColor=#fff2cc;strokeColor=#d6b656;fontSize=18;" parent="1" vertex="1">
          <mxGeometry x="325" y="350" width="30" height="60" as="geometry" />
        </mxCell>
        <mxCell id="8F5OMPCy04fyyseZWVCi-10" value="&lt;b&gt;«System»&lt;br&gt;&lt;/b&gt;&lt;span style=&quot;text-align: left;&quot;&gt;Notification Management Service&lt;/span&gt;" style="html=1;whiteSpace=wrap;fontSize=18;" parent="1" vertex="1">
          <mxGeometry x="1040" y="175" width="150" height="80" as="geometry" />
        </mxCell>
        <mxCell id="8F5OMPCy04fyyseZWVCi-11" value="&lt;span style=&quot;text-align: left;&quot;&gt;Manage prescriptions&lt;/span&gt;" style="ellipse;whiteSpace=wrap;html=1;align=center;fillColor=#d5e8d4;strokeColor=#82b366;fontSize=18;" parent="1" vertex="1">
          <mxGeometry x="458.75" y="80" width="237.5" height="50" as="geometry" />
        </mxCell>
        <mxCell id="8F5OMPCy04fyyseZWVCi-12" value="&lt;span style=&quot;text-align: left;&quot;&gt;Manage pharmacies&amp;nbsp;&lt;/span&gt;" style="ellipse;whiteSpace=wrap;html=1;align=center;fillColor=#f8cecc;strokeColor=#b85450;fontSize=18;" parent="1" vertex="1">
          <mxGeometry x="458.75" y="220" width="260" height="50" as="geometry" />
        </mxCell>
        <mxCell id="8F5OMPCy04fyyseZWVCi-13" value="&lt;span style=&quot;text-align: left;&quot;&gt;Manage users and roles&lt;/span&gt;" style="ellipse;whiteSpace=wrap;html=1;align=center;fillColor=#dae8fc;strokeColor=#6c8ebf;fontSize=18;" parent="1" vertex="1">
          <mxGeometry x="458.75" y="460" width="260" height="50" as="geometry" />
        </mxCell>
        <mxCell id="8F5OMPCy04fyyseZWVCi-15" value="&lt;span style=&quot;text-align: left;&quot;&gt;Manage patients&lt;/span&gt;" style="ellipse;whiteSpace=wrap;html=1;align=center;fillColor=#fff2cc;strokeColor=#d6b656;fontSize=18;" parent="1" vertex="1">
          <mxGeometry x="458.75" y="380" width="260" height="50" as="geometry" />
        </mxCell>
        <mxCell id="8F5OMPCy04fyyseZWVCi-16" value="&lt;span&gt;Authenticate users&lt;/span&gt;" style="ellipse;whiteSpace=wrap;html=1;align=center;fillColor=#f5f5f5;fontColor=#333333;strokeColor=#666666;fontSize=18;" parent="1" vertex="1">
          <mxGeometry x="760" y="330" width="230" height="40" as="geometry" />
        </mxCell>
        <mxCell id="8F5OMPCy04fyyseZWVCi-22" value="&lt;b&gt;Admin&lt;/b&gt;" style="shape=umlActor;verticalLabelPosition=bottom;verticalAlign=top;html=1;outlineConnect=0;fillColor=#dae8fc;strokeColor=#6c8ebf;fontSize=18;" parent="1" vertex="1">
          <mxGeometry x="325" y="450" width="30" height="60" as="geometry" />
        </mxCell>
        <mxCell id="8F5OMPCy04fyyseZWVCi-48" value="" style="endArrow=none;html=1;rounded=0;exitX=0.5;exitY=0.5;exitDx=0;exitDy=0;exitPerimeter=0;fontSize=18;entryX=0;entryY=0.5;entryDx=0;entryDy=0;" parent="1" source="8F5OMPCy04fyyseZWVCi-4" target="8F5OMPCy04fyyseZWVCi-11" edge="1">
          <mxGeometry width="50" height="50" relative="1" as="geometry">
            <mxPoint x="570" y="420" as="sourcePoint" />
            <mxPoint x="620" y="370" as="targetPoint" />
          </mxGeometry>
        </mxCell>
        <mxCell id="8F5OMPCy04fyyseZWVCi-51" value="" style="endArrow=none;html=1;rounded=0;fontSize=18;entryX=0;entryY=0.5;entryDx=0;entryDy=0;exitX=0.5;exitY=0.5;exitDx=0;exitDy=0;exitPerimeter=0;" parent="1" source="8F5OMPCy04fyyseZWVCi-5" target="8F5OMPCy04fyyseZWVCi-12" edge="1">
          <mxGeometry width="50" height="50" relative="1" as="geometry">
            <mxPoint x="270" y="320" as="sourcePoint" />
            <mxPoint x="320" y="270" as="targetPoint" />
          </mxGeometry>
        </mxCell>
        <mxCell id="8F5OMPCy04fyyseZWVCi-52" value="" style="endArrow=none;html=1;rounded=0;entryX=0;entryY=0.5;entryDx=0;entryDy=0;fontSize=18;exitX=0.5;exitY=0.5;exitDx=0;exitDy=0;exitPerimeter=0;" parent="1" source="8F5OMPCy04fyyseZWVCi-22" target="8F5OMPCy04fyyseZWVCi-13" edge="1">
          <mxGeometry width="50" height="50" relative="1" as="geometry">
            <mxPoint x="570" y="420" as="sourcePoint" />
            <mxPoint x="620" y="370" as="targetPoint" />
          </mxGeometry>
        </mxCell>
        <mxCell id="8F5OMPCy04fyyseZWVCi-54" value="" style="endArrow=none;html=1;rounded=0;exitX=0.5;exitY=0.5;exitDx=0;exitDy=0;exitPerimeter=0;entryX=0;entryY=0.5;entryDx=0;entryDy=0;fontSize=18;" parent="1" source="8F5OMPCy04fyyseZWVCi-6" target="8F5OMPCy04fyyseZWVCi-15" edge="1">
          <mxGeometry width="50" height="50" relative="1" as="geometry">
            <mxPoint x="290" y="520" as="sourcePoint" />
            <mxPoint x="340" y="470" as="targetPoint" />
          </mxGeometry>
        </mxCell>
        <mxCell id="8F5OMPCy04fyyseZWVCi-55" value="" style="endArrow=none;html=1;rounded=0;entryX=0;entryY=0.5;entryDx=0;entryDy=0;exitX=0.5;exitY=0.5;exitDx=0;exitDy=0;exitPerimeter=0;fontSize=18;" parent="1" source="8F5OMPCy04fyyseZWVCi-4" target="8F5OMPCy04fyyseZWVCi-15" edge="1">
          <mxGeometry width="50" height="50" relative="1" as="geometry">
            <mxPoint x="570" y="420" as="sourcePoint" />
            <mxPoint x="620" y="370" as="targetPoint" />
          </mxGeometry>
        </mxCell>
        <mxCell id="8F5OMPCy04fyyseZWVCi-56" value="&amp;lt;&amp;lt;include&amp;gt;&amp;gt;" style="edgeStyle=none;html=1;endArrow=open;verticalAlign=bottom;dashed=1;labelBackgroundColor=none;rounded=0;exitX=0.5;exitY=0.5;exitDx=0;exitDy=0;entryX=0.5;entryY=0;entryDx=0;entryDy=0;fontSize=18;exitPerimeter=0;" parent="1" source="8F5OMPCy04fyyseZWVCi-4" target="8F5OMPCy04fyyseZWVCi-16" edge="1">
          <mxGeometry width="160" relative="1" as="geometry">
            <mxPoint x="510" y="330" as="sourcePoint" />
            <mxPoint x="670" y="330" as="targetPoint" />
            <Array as="points">
              <mxPoint x="640" y="180" />
            </Array>
          </mxGeometry>
        </mxCell>
        <mxCell id="8F5OMPCy04fyyseZWVCi-57" value="&amp;lt;&amp;lt;include&amp;gt;&amp;gt;" style="edgeStyle=none;html=1;endArrow=open;verticalAlign=bottom;dashed=1;labelBackgroundColor=none;rounded=0;exitX=0.5;exitY=0.5;exitDx=0;exitDy=0;fontSize=18;exitPerimeter=0;" parent="1" source="8F5OMPCy04fyyseZWVCi-5" target="8F5OMPCy04fyyseZWVCi-16" edge="1">
          <mxGeometry width="160" relative="1" as="geometry">
            <mxPoint x="510" y="380" as="sourcePoint" />
            <mxPoint x="670" y="380" as="targetPoint" />
            <Array as="points">
              <mxPoint x="540" y="300" />
            </Array>
          </mxGeometry>
        </mxCell>
        <mxCell id="8F5OMPCy04fyyseZWVCi-60" value="&amp;lt;&amp;lt;include&amp;gt;&amp;gt;" style="edgeStyle=none;html=1;endArrow=open;verticalAlign=bottom;dashed=1;labelBackgroundColor=none;rounded=0;exitX=0.5;exitY=0.5;exitDx=0;exitDy=0;entryX=0.5;entryY=1;entryDx=0;entryDy=0;fontSize=18;exitPerimeter=0;" parent="1" source="8F5OMPCy04fyyseZWVCi-6" target="8F5OMPCy04fyyseZWVCi-16" edge="1">
          <mxGeometry width="160" relative="1" as="geometry">
            <mxPoint x="510" y="380" as="sourcePoint" />
            <mxPoint x="670" y="380" as="targetPoint" />
          </mxGeometry>
        </mxCell>
        <mxCell id="dcAXjQyT_biFJBgPD5Zw-1" value="&lt;span&gt;Send notifications&lt;/span&gt;" style="ellipse;whiteSpace=wrap;html=1;align=center;fillColor=#f5f5f5;fontColor=#333333;strokeColor=#666666;fontSize=18;" parent="1" vertex="1">
          <mxGeometry x="750" y="150" width="230" height="40" as="geometry" />
        </mxCell>
        <mxCell id="dcAXjQyT_biFJBgPD5Zw-2" value="" style="endArrow=none;html=1;rounded=0;fontSize=18;entryX=0;entryY=0.5;entryDx=0;entryDy=0;exitX=1;exitY=0.5;exitDx=0;exitDy=0;" parent="1" source="dcAXjQyT_biFJBgPD5Zw-1" target="8F5OMPCy04fyyseZWVCi-10" edge="1">
          <mxGeometry width="50" height="50" relative="1" as="geometry">
            <mxPoint x="390" y="273" as="sourcePoint" />
            <mxPoint x="550" y="250" as="targetPoint" />
          </mxGeometry>
        </mxCell>
        <mxCell id="dcAXjQyT_biFJBgPD5Zw-3" value="&lt;b&gt;«System»&lt;br&gt;&lt;/b&gt;&lt;span style=&quot;text-align: left;&quot;&gt;Authentication service&lt;/span&gt;" style="html=1;whiteSpace=wrap;fontSize=18;" parent="1" vertex="1">
          <mxGeometry x="1030" y="340" width="150" height="80" as="geometry" />
        </mxCell>
        <mxCell id="dcAXjQyT_biFJBgPD5Zw-5" value="" style="endArrow=none;html=1;rounded=0;fontSize=18;entryX=0;entryY=0.25;entryDx=0;entryDy=0;exitX=1;exitY=0.5;exitDx=0;exitDy=0;" parent="1" source="8F5OMPCy04fyyseZWVCi-16" target="dcAXjQyT_biFJBgPD5Zw-3" edge="1">
          <mxGeometry width="50" height="50" relative="1" as="geometry">
            <mxPoint x="1030" y="200" as="sourcePoint" />
            <mxPoint x="1080" y="245" as="targetPoint" />
          </mxGeometry>
        </mxCell>
        <mxCell id="dcAXjQyT_biFJBgPD5Zw-7" value="" style="endArrow=none;html=1;rounded=0;fontSize=18;entryX=0;entryY=1;entryDx=0;entryDy=0;exitX=0.5;exitY=0.5;exitDx=0;exitDy=0;exitPerimeter=0;" parent="1" source="8F5OMPCy04fyyseZWVCi-22" target="8F5OMPCy04fyyseZWVCi-12" edge="1">
          <mxGeometry width="50" height="50" relative="1" as="geometry">
            <mxPoint x="420" y="275" as="sourcePoint" />
            <mxPoint x="563" y="250" as="targetPoint" />
          </mxGeometry>
        </mxCell>
        <mxCell id="dcAXjQyT_biFJBgPD5Zw-8" value="&amp;lt;&amp;lt;include&amp;gt;&amp;gt;" style="edgeStyle=none;html=1;endArrow=open;verticalAlign=bottom;dashed=1;labelBackgroundColor=none;rounded=0;exitX=1;exitY=0.5;exitDx=0;exitDy=0;entryX=0.5;entryY=0;entryDx=0;entryDy=0;fontSize=18;" parent="1" source="8F5OMPCy04fyyseZWVCi-11" target="dcAXjQyT_biFJBgPD5Zw-1" edge="1">
          <mxGeometry width="160" relative="1" as="geometry">
            <mxPoint x="690" y="390" as="sourcePoint" />
            <mxPoint x="1229" y="330" as="targetPoint" />
          </mxGeometry>
        </mxCell>
        <mxCell id="dcAXjQyT_biFJBgPD5Zw-9" value="&amp;lt;&amp;lt;include&amp;gt;&amp;gt;" style="edgeStyle=none;html=1;endArrow=open;verticalAlign=bottom;dashed=1;labelBackgroundColor=none;rounded=0;exitX=1;exitY=0.5;exitDx=0;exitDy=0;entryX=0.5;entryY=1;entryDx=0;entryDy=0;fontSize=18;" parent="1" source="8F5OMPCy04fyyseZWVCi-12" target="dcAXjQyT_biFJBgPD5Zw-1" edge="1">
          <mxGeometry width="160" relative="1" as="geometry">
            <mxPoint x="630" y="290" as="sourcePoint" />
            <mxPoint x="1169" y="230" as="targetPoint" />
          </mxGeometry>
        </mxCell>
        <mxCell id="dcAXjQyT_biFJBgPD5Zw-10" value="&amp;lt;&amp;lt;include&amp;gt;&amp;gt;" style="edgeStyle=none;html=1;endArrow=open;verticalAlign=bottom;dashed=1;labelBackgroundColor=none;rounded=0;exitX=1;exitY=0.5;exitDx=0;exitDy=0;entryX=0.5;entryY=1;entryDx=0;entryDy=0;fontSize=18;" parent="1" source="8F5OMPCy04fyyseZWVCi-15" target="dcAXjQyT_biFJBgPD5Zw-1" edge="1">
          <mxGeometry width="160" relative="1" as="geometry">
            <mxPoint x="650" y="450" as="sourcePoint" />
            <mxPoint x="1189" y="390" as="targetPoint" />
          </mxGeometry>
        </mxCell>
      </root>
    </mxGraphModel>
  </diagram>
</mxfile>
